<svg xmlns="http://www.w3.org/2000/svg" overflow="visible" viewBox="0 0 284.5 284.5">
  <style>
    .st0{fill:#1954a6}
  </style>
  <path d="M100.8 44.6c.9 0 1.6-.7 1.6-1.6 0-.9-.7-1.6-1.6-1.6-.9 0-1.6.7-1.6 1.6 0 .8.8 1.6 1.6 1.6zM133.6 29.7c.5 0 1-.4 1-1 0-.5-.4-1-1-1-.5 0-1 .4-1 1 0 .5.5 1 1 1zM112.1 37.5c.6 0 1-.5 1-1.1 0-.6-.5-1-1-1-.6 0-1 .5-1 1-.1.6.4 1.1 1 1.1zM98.5 57.1c0 .9-.3 1.4-.4 1.9 2 1.1 2.2 2.6 2.3 2.7.1-.1.2-.1.2-.2.7-.6 1.7-1 2.7-1 3.2 0 5.2 3.1 3.9 6.2-.3.7-2.1 3.3-5.6 2.1-.2.3-.4.5-.7.8 1 2 3.4 2.9 5.5 2.1 2.1-.8 3.6-2.5 4.1-4.5 1.6 1.4 3.7 2.1 5.9 1.6 2.4-.5 3.9-2.8 3.4-5.1 0-.2-.2-1.1-.3-1.4-.3 1.6-1.6 3-3.3 3.4-2.3.5-4.5-1.1-5-3.3-.5-2.3 1-4.5 3.3-5 .2-.1.5 0 .8 0l-.2-.4c-.1-.5-.1-1 0-1.5-2.1-.6-3.6-2.5-3.6-4.7 0-1.8 1-3.4 2.5-4.2-1.2-.7-2.1-2-2.1-3.5 0-2.1 1.6-3.9 3.7-4.1-.1-.1-.1-.2-.2-.4-8.8 2.8-13.3 7-15.4 11.3-1.6 3.8-1.3 4.7-1.5 7.2zM106.3 40.4c.7 0 1.3-.6 1.3-1.3 0-.7-.6-1.3-1.3-1.3-.7 0-1.3.6-1.3 1.3-.1.8.5 1.3 1.3 1.3z" class="st0"/>
  <path d="M113.5 43c0 1.4 1.1 2.5 2.5 2.5s2.5-1.1 2.5-2.5-1.1-2.5-2.5-2.5c-1.3-.1-2.5 1.1-2.5 2.5zM128 31.5c.7 0 1.2-.5 1.2-1.2s-.5-1.2-1.2-1.2-1.2.5-1.2 1.2c0 .6.6 1.2 1.2 1.2zM119.6 51.9c.1-.4.2-.8.2-1.2 0-1.8-1.5-3.4-3.4-3.4-1.8 0-3.4 1.5-3.4 3.4 0 1.6 1.1 2.9 2.6 3.3.6-1 1.6-1.8 2.8-2 .5-.1.9-.1 1.2-.1zM123.2 34.4c.8 0 1.5-.7 1.5-1.5s-.7-1.5-1.5-1.5-1.5.7-1.5 1.5c0 .9.6 1.5 1.5 1.5zM122 52.8c.8.6 1.3 1.5 1.5 2.5v.4c.2-.1.5-.2.7-.3 2.3-.4 4.5 1 5 3.3.4 2.3-1 4.5-3.3 5-1.7.3-3.4-.5-4.3-1.9 0 .3.2 1.2.2 1.4.5 2.4 2.8 3.9 5.1 3.4 2.2-.4 3.8-1.8 4.7-3.7 1.3 1.7 3.1 2.8 5.4 2.8 2.4 0 4.4-2 4.4-4.4 0-.2 0-1.1-.1-1.4-.6 1.6-2.1 2.7-3.9 2.7-2.3 0-4.2-1.9-4.2-4.2 0-2.3 1.9-4.2 4.2-4.2.3 0 .5.1.8.1 0-.2-.1-.4-.1-.4 0-.4.1-.8.2-1.2l-1.5-1s.3-14.3 2.8-20.7c-.1 0-.2-.1-.2-.1-20.9 1.2-19.1 15.7-16.6 20.8l-.8 1.1z" class="st0"/>
  <path d="M117.2 59.3c0 1.5 1.2 2.8 2.8 2.8 1.5 0 2.8-1.2 2.8-2.8 0-1.5-1.2-2.8-2.8-2.8-1.5 0-2.8 1.3-2.8 2.8zM118.7 38.9c1.1 0 2.1-.9 2.1-2.1 0-1.1-.9-2.1-2.1-2.1-1.1 0-2.1.9-2.1 2.1 0 1.2.9 2.1 2.1 2.1zM145.1 57.2c0-1.5-1.2-2.8-2.8-2.8-1.5 0-2.8 1.2-2.8 2.8 0 1.5 1.2 2.8 2.8 2.8 1.5-.1 2.8-1.3 2.8-2.8zM60.8 194.4l-.3-.3c-.1 0-.3 0-.4-.1-.5-.3-2.5.6-3.6 2.3-.3.6-.6 1.2-.7 1.8.4.4.9.9 1.6 1.3.7.4 1.4.6 1.9.7.5-.4.9-.9 1.2-1.5.7-1.3.8-2.8.6-3.6 0-.3-.2-.5-.3-.6zM47.8 153.9c-.7-1.1-1.1-2.5-1.1-3.5-.6.5-.8 1.2-.9 1.6-.1.8.1 1.8.6 2.6.9 1.6 2.6 2.3 3.9 1.8-.8-.4-1.8-1.4-2.5-2.5zM96.4 51.1c1.3 0 2.3-1 2.3-2.3 0-1.3-1-2.3-2.3-2.3-1.2 0-2.3 1-2.3 2.3 0 1.3 1.1 2.3 2.3 2.3zM54.5 151.1c.1-.4.1-.7 0-.8-.1-.1-.1-.3-.1-.4l-.3-.3c-.3-.5-2.5-.7-4.3.3-.6.4-1.1.8-1.5 1.3.1.5.3 1.2.8 1.9.4.7.9 1.2 1.3 1.6.6-.1 1.2-.4 1.8-.7 1.3-.8 2.1-2.1 2.3-2.9zM98 63.5c-1 0-1.8.5-2.3 1.2-.3.4-.5 1-.5 1.6 0 1.5 1.3 2.8 2.8 2.8s2.8-1.3 2.8-2.8c0-.6-.2-1.1-.5-1.6-.4-.7-1.3-1.2-2.3-1.2zM93 60.1c.8-.9 2-1.5 3.3-1.5h.3c.3-.4.4-.9.4-1.5 0-1.7-1.4-3-3-3-1.7 0-3 1.4-3 3 0 1.1 1 2.5 2 3zM187.5 176.8c-.3-.7-.5-1.5-.7-2.2-.2.7-.4 1.4-.7 2.1l-1.5 3.9h4.3l-1.4-3.8zM65.2 93c5.5-6.7 14.9-13.4 18.1-15.6 1.4-1.1 1.4-1.1 1.6-1.1h.2l.2.3v.2c0 .2 0 .2-1.4 1.2l-.1.1C80.2 81 72 88.1 66.9 94.4c-1.4 1.7-2.4 3-3.3 3.9 1 .5 2.4 1.1 3.6 1.1.4 0 .7-.1.9-.2 0 0 .1 0 .1-.1-.1-.2-.3-.5-.4-.7-.4-.7-1.1-1.8-.2-2.8.6-.7 1.3-1.1 2.2-1.1.8 0 1.5.3 2.4.6l1 .3c.6.2 1.3.4 2.1.4.7 0 1.3-.2 1.7-.7.2-.2.4-.5.4-.6 0-.3-.6-.9-1-1.3-.8-.8-2.1-2-1.4-3.6.5-.9 1.3-1.4 2.3-1.4 1.2 0 2.6.7 3.9 1.3l.4.2c1 .5 1.9.7 2.7.7.8 0 1.8-.2 2.4-2 .2-.5.1-.7.1-.8-.3-.5-1.5-1-2.4-1.3-1.4-.5-3.2-1.1-3.1-2.7.1-1.6 1-3.5 4.7-3.5 1.5 0 2.7-.7 3.3-1.7.6-1.1.5-2.7-.4-4.2-.8-1.4-2-2.2-3.3-2.2-1.5 0-2.8 1-3.5 2.7-.9 1.9-2.1 3.9-4.8 3.6-1.9-.2-1.9-2.3-1.9-3.9 0-.9 0-2.3-.4-2.6 0 0-.1-.1-.4-.1h-.4c-1.5.3-2.7 1-3.3 2.1-.6 1-.7 2.2-.3 3.6l.3.9c.6 1.9 1.5 4.9-1.1 5.9-.3.1-.6.2-.9.2-1.2 0-2-.9-2.6-1.7-.4-.5-.9-1-1.2-1-.1 0-.4.1-.9.5-1.5 1.5-1.1 3-.5 4.5l.1.2c.1.3.2.5.3.8.6 1.4 1.2 2.9-.1 4.5-.3.3-.7.7-1.5.7-.5 0-.9-.1-1.4-.3-.3-.1-.6-.2-.8-.2 0 0-.1.1-.2.3-.2.6-.3 2 2.1 4.5.5-1.1 1.6-2.4 3-4.2zM54 198.3c-.6 1.5.4 3 1.8 3.9 1.6.9 3.4.8 4.3-.3-1 0-2.4-.3-3.5-1-1.1-.8-2.1-1.7-2.6-2.6zM202.1 173.9h-1.4v4.6c.3.1.8.1 1.2.1 1.8 0 2.8-.8 2.8-2.4 0-1.3-.9-2.3-2.6-2.3zM143.3 21.5v2.3h2.9c-.6-1.1-1.6-2-2.9-2.3zM172.5 37.5c.6 0 1-.5 1-1.1 0-.6-.5-1-1-1-.6 0-1 .5-1 1-.1.6.4 1.1 1 1.1zM140 28c0-.2-.1-.4-.1-.5 0-.9.5-1.6 1.2-2h-3.2v.3c0 .9.3 1.7.7 2.3.4-.1.9-.1 1.4-.1zM172.6 43c0 1.5-.8 2.8-2.1 3.5 1.5.8 2.5 2.4 2.5 4.2 0 2.3-1.5 4.2-3.6 4.7.1.5.1 1 0 1.5l-.2.4h.8c2.3.4 3.8 2.7 3.3 5-.4 2.3-2.7 3.8-5 3.3-1.7-.3-3-1.7-3.3-3.4-.1.3-.3 1.2-.3 1.4-.5 2.4 1.1 4.7 3.4 5.1 2.2.4 4.4-.2 5.9-1.6.6 2 2 3.7 4.1 4.5 2.1.8 4.5-.1 5.5-2.1-.3-.2-.5-.5-.7-.8-3.5 1.3-5.3-1.4-5.6-2.1-1.3-3 .7-6.1 3.9-6.2 1 0 2 .4 2.7 1 .1.1.2.1.2.2 0-.1.3-1.6 2.3-2.7-.2-.5-.4-1.1-.4-1.9-.1-2.5.2-3.4-1.5-7.3-2.1-4.2-6.6-8.5-15.4-11.3-.1.1-.1.2-.2.4 2 .3 3.7 2 3.7 4.2z" class="st0"/>
  <path d="M171.4 50.7c0-1.8-1.5-3.4-3.4-3.4-1.8 0-3.4 1.5-3.4 3.4 0 .4.1.8.2 1.2.3 0 .7 0 1 .1 1.2.2 2.2 1 2.8 2 1.7-.3 2.8-1.7 2.8-3.3zM183.7 44.6c.9 0 1.6-.7 1.6-1.6 0-.9-.7-1.6-1.6-1.6-.9 0-1.6.7-1.6 1.6 0 .8.7 1.6 1.6 1.6zM165.9 43c0 1.4 1.1 2.5 2.5 2.5s2.5-1.1 2.5-2.5-1.1-2.5-2.5-2.5c-1.3-.1-2.5 1.1-2.5 2.5zM188.1 51.1c1.2 0 2.3-1 2.3-2.3 0-1.3-1-2.3-2.3-2.3-1.3 0-2.3 1-2.3 2.3.1 1.3 1.1 2.3 2.3 2.3zM139.7 50.6c.7-.5 1.6-.9 2.6-.9s1.9.3 2.6.9c.5-.6.9-1.4.9-2.3 0-1.9-1.5-3.4-3.4-3.4s-3.4 1.5-3.4 3.4c-.2.9.2 1.6.7 2.3zM142.3 37.4c1.2 0 2.2-1 2.2-2.2 0-1.2-1-2.2-2.2-2.2-1.2 0-2.2 1-2.2 2.2 0 1.2 1 2.2 2.2 2.2zM186.5 63.5c-.8 0-1.5.3-2 .9-.5.5-.8 1.2-.8 1.9 0 1.5 1.3 2.8 2.8 2.8 1.5 0 2.8-1.3 2.8-2.8 0-.3-.1-.7-.2-1-.4-1-1.4-1.8-2.6-1.8zM187.6 57.1c0 .5.2 1 .4 1.5h.3c1.3 0 2.5.6 3.3 1.5.9-.6 2-1.9 2-3 0-1.7-1.3-3-3-3s-3 1.4-3 3zM178.3 40.4c.7 0 1.3-.6 1.3-1.3 0-.7-.6-1.3-1.3-1.3-.7 0-1.3.6-1.3 1.3 0 .8.6 1.3 1.3 1.3zM142.3 28.4c.5 0 1-.4 1-1 0-.5-.4-1-1-1-.5 0-1 .4-1 1s.4 1 1 1zM66.9 111.3c1.5 0 2.8-.7 3.4-1.4.3-.3.4-.5.4-.7 0-.2 0-.3.1-.4-.1-.1-.1-.2-.1-.4 0-.6-1.8-1.9-3.9-1.8-.7 0-1.3.2-1.9.4-.2.5-.3 1.2-.3 2s.2 1.5.4 2c.5.2 1.2.3 1.9.3zM141.2 21.5c-1.2.3-2.3 1.2-2.9 2.3h2.9v-2.3zM165.9 38.9c1.1 0 2.1-.9 2.1-2.1 0-1.1-.9-2.1-2.1-2.1-1.1 0-2.1.9-2.1 2.1 0 1.2.9 2.1 2.1 2.1zM142.3 32.2c.8 0 1.5-.7 1.5-1.5s-.7-1.5-1.5-1.5-1.5.7-1.5 1.5c0 .9.7 1.5 1.5 1.5zM144.6 27.4c0 .2 0 .4-.1.5h1.4c.4-.7.7-1.5.7-2.3v-.3h-3.2c.7.5 1.2 1.3 1.2 2.1zM161.7 59.3c0 1.5 1.2 2.8 2.8 2.8 1.5 0 2.8-1.2 2.8-2.8 0-1.5-1.2-2.8-2.8-2.8-1.5 0-2.8 1.3-2.8 2.8zM161.4 34.4c.8 0 1.5-.7 1.5-1.5s-.7-1.5-1.5-1.5-1.5.7-1.5 1.5c0 .9.7 1.5 1.5 1.5zM156.5 31.5c.7 0 1.2-.5 1.2-1.2s-.5-1.2-1.2-1.2-1.2.5-1.2 1.2c0 .6.5 1.2 1.2 1.2zM151 29.7c.5 0 1-.4 1-1 0-.5-.4-1-1-1-.5 0-1 .4-1 1 0 .5.4 1 1 1z" class="st0"/>
  <path d="M145.1 31.1c2.6 6.4 2.8 20.7 2.8 20.7l-1.5 1c.1.4.2.8.2 1.2 0 0 0 .2-.1.4.3 0 .5-.1.8-.1 2.3 0 4.2 1.9 4.2 4.2 0 2.3-1.9 4.2-4.2 4.2-1.8 0-3.3-1.1-3.9-2.7 0 .3-.1 1.2-.1 1.4 0 2.4 2 4.4 4.4 4.4 2.2 0 4.1-1.1 5.4-2.8.9 1.9 2.5 3.3 4.7 3.7 2.4.5 4.7-1.1 5.1-3.4 0-.2.2-1.1.2-1.4-.9 1.4-2.6 2.2-4.3 1.9-2.3-.4-3.8-2.7-3.3-5 .4-2.3 2.7-3.8 5-3.3.2 0 .5.2.7.3v-.4c.2-1 .8-1.9 1.5-2.5l-.6-1.1c2.5-5.1 4.3-19.6-16.7-20.8-.2 0-.3 0-.3.1zM107.2 80.3c.6.3 1.3.7 1.9 1.1.4-.5 1.3-1.6 2.1-2.5-1.2-.2-2.6-.4-3.3-.5-.1.4-.4 1.2-.7 1.9zM217.8 106.6c-2 0-3.8 1.2-3.9 1.9 0 .2 0 .3-.1.4.1.1.1.3.1.4 0 .1.1.4.4.7.6.6 1.9 1.3 3.4 1.4.7 0 1.3-.1 1.9-.3.2-.5.4-1.2.4-2s-.1-1.5-.3-2c-.6-.3-1.2-.5-1.9-.5zM206.5 244.5c-1.3 0-2.5 1.1-3 2.8-.3 1.1-.2 2.2.3 3 .3.5.7.8 1.2 1-.3-1-.3-2.3.1-3.6.3-1.2 1-2.4 1.8-3.2h-.4zM209.3 246.4c-.7-.2-1.3-.2-1.9-.2-.3.4-.6 1.1-.8 1.9-.2.8-.2 1.5-.2 2 .5.4 1.1.7 1.8.8 1.4.4 2.9.1 3.7-.3.4-.2.5-.4.5-.5 0-.2.1-.3.2-.4v-.4c.1-.6-1.3-2.3-3.3-2.9zM227.9 200.8c-1.1.7-2.5 1-3.5 1 .5.6 1.2 1 2.1 1 .7 0 1.4-.2 2.1-.6 1.4-.8 2.4-2.4 1.8-3.9-.4.9-1.3 1.8-2.5 2.5zM200.8 235.6c-.8.5-2.2.9-3.5.9-1.4 0-2.7-.3-3.5-.8.2 1.6 1.9 2.4 3.5 2.4h.1c1.8-.1 3.2-1.1 3.4-2.5zM139.3 258.7c1 1.2 2 2.3 3 3.3.9-1 1.9-2.1 2.9-3.3l-3-3.3c-.9 1.1-1.9 2.2-2.9 3.3zM121.9 252.8c-.1-.1-.2-.1-.2-.1 0 .1-.3.5-.5.7-.4.7-1 1.6-2.1 1.6h-.4c-2.1-.5-2.3-2.3-2.6-4l-.1-.9c-.2-1.5-.6-3-2-3.4-.7-.2-.9-.2-1.4 1.6-.4 1.2-.8 2.8-2.5 2.9-.7.1-1.4-.2-1.9-.7-1.1-1.1-1.1-3.1-1-4.8v-.6c0-4.1-2.1-4.1-2.9-4.1-.2 0-.5 0-.7.1-.5 0-.7.2-.7.3-.4.5-.2 1.8-.1 2.9.2 1.6.4 3.4-1.1 4-.5.2-.9.3-1.4.3-1.9 0-3.1-1.7-3.8-3-.8-1.4-2-2.2-3.2-2.2-1.3 0-2.6.8-3.6 2.3-.9 1.4-1.1 2.9-.4 4.1.7 1.3 2.2 2 4.1 1.9h.8c.9 0 3.6 0 4.7 2.8.7 1.9-1.3 2.8-2.7 3.5-.8.4-2.1 1-2.2 1.5-.1.2.2.6.3.9 1 1.3 2.2 2 3.5 2 1.1 0 2.3-.5 3.3-1.5.2-.2.4-.3.6-.5 1.3-1.2 2.6-2.5 4.2-2.5.6 0 1.2.2 1.7.6 1.5 1.1.8 2.9.4 3.9-.2.6-.5 1.3-.4 1.6.1.2.4.4.9.6.4.2.9.2 1.3.2 1.5 0 2.4-1 3.1-1.7l.1-.1c.2-.3.4-.5.6-.7.9-1 1.8-2 3.3-2 .2 0 .5 0 .8.1 1.3.3 1.5 1.6 1.6 2.4 0 .3.1.8.2.9h.4c.8-.1 2-.8 3-3.8l-1.8-.3c-9.9-1.7-23.9-8.4-24.1-9.1v-.2-.1s0-.1.1-.1c.1-.1.2-.1.3-.1.1 0 .1 0 1.2.4 3.6 1.4 14.4 5.7 22.9 7.2l1.8.3c-.1-3.7-.9-4.8-1.4-5.1zM63.8 105.5c-.8.1-1.3.6-1.6 1-.5.7-.8 1.6-.8 2.6 0 1.9 1.1 3.3 2.5 3.5-.6-.9-.9-2.2-1-3.5.1-1.4.4-2.7.9-3.6zM162 73.7l-3.3-.7c-.9-.2-1.8.4-2 1.3-.2.9.4 1.8 1.3 2l3.3.7c.9.2 1.8-.4 2-1.3.2-.9-.4-1.8-1.3-2zM220.7 105.5c.5.9.8 2.2.8 3.5 0 1.3-.4 2.6-1 3.5 1.4-.2 2.5-1.6 2.5-3.5.1-1.8-.9-3.3-2.3-3.5zM191.4 243.3c-1.3 0-2.5.8-3.3 2.2-.7 1.3-1.9 3-3.8 3-.5 0-.9-.1-1.4-.3-1.5-.6-1.3-2.4-1.1-4 .1-1 .3-2.4-.1-2.9 0-.1-.2-.2-.6-.2-.3 0-.6-.1-.8-.1-.8 0-2.8 0-2.9 4.1v.6c0 1.8 0 3.7-1 4.8-.5.5-1.1.7-1.9.7-1.7-.1-2.2-1.8-2.5-2.9-.5-1.7-.7-1.8-1.4-1.6-1.5.4-1.8 1.8-2 3.4l-.1.9c-.2 1.8-.5 3.6-2.6 4-1.3.3-2-.8-2.5-1.5-.1-.2-.4-.6-.5-.7 0 0-.1 0-.1.1-.5.3-1.3 1.4-1.3 4.7l1.8-.3c8.5-1.5 19.4-5.8 22.9-7.2 1.1-.4 1.1-.4 1.2-.4.1 0 .2 0 .3.1l.1.1V250.2c-.2.7-14.2 7.4-24.1 9.1-.7.1-1.3.2-1.8.3 1.1 2.9 2.2 3.7 3 3.8h.4c.1-.1.2-.6.2-.9.1-.8.3-2.1 1.6-2.4.2-.1.5-.1.7-.1 1.5 0 2.4 1 3.3 2 .2.2.4.5.6.7l.1.2c.6.7 1.6 1.7 3.1 1.7.4 0 .8-.1 1.3-.2.5-.2.8-.4.9-.6.1-.3-.2-1-.4-1.6-.4-1-1.1-2.8.4-3.9.5-.4 1.1-.6 1.7-.6 1.6 0 2.9 1.3 4.2 2.5.2.2.4.4.6.5 1 .9 2.2 1.5 3.3 1.5 1.3 0 2.5-.7 3.6-2 .1-.2.4-.6.3-.8-.1-.5-1.4-1.1-2.2-1.5-1.4-.7-3.4-1.6-2.7-3.5 1.1-2.8 3.8-2.8 4.7-2.8h1.3c1.7 0 3-.7 3.6-1.9.6-1.2.5-2.7-.4-4.1-1.1-1.5-2.4-2.3-3.7-2.3zM197.2 234.9c.8 0 1.5-.2 2.1-.4.2-.6.3-1.2.3-1.9 0-2-1.4-3.8-2-3.8-.1 0-.3 0-.4-.1-.1.1-.2.1-.4.1-.1 0-.4.1-.6.4-.6.6-1.3 2-1.2 3.4 0 .7.1 1.3.4 1.9.3.3 1 .4 1.8.4zM255.6 147.5c-.1 0-.3-.1-.4-.2-.4-.4-2.6-.2-4.1 1.2-.5.5-.9 1-1.2 1.6.2.5.6 1.1 1.1 1.7.5.6 1.1 1 1.6 1.2.6-.2 1.1-.6 1.6-1.1 1.1-1 1.6-2.4 1.6-3.3 0-.4-.1-.6-.2-.7.1-.1.1-.3 0-.4zM248.3 149.6c-.3.4-.5.9-.5 1.5 0 .9.4 1.9 1.2 2.7 1.2 1.3 3 1.7 4.2.9-1-.3-2.1-1-3-2-1.1-.9-1.7-2.1-1.9-3.1z" class="st0"/>
  <path d="M0 0v284.5h284.5V0H0zm239.7 118.2c.2-.3.6-.9.8-1.4.8-1.5 1.8-3.3 3.7-3.3.7 0 1.4.3 2.1.9 1.7 1.4 2.7 3.1 2.8 4.9.1 1.8-.7 3.7-2.3 5.2-.2.2-.4.4-.7.6-1.2 1.1-2.1 2.1-1.7 2.6.3 0 .8-.1 1.2-.3.6-.2 1.4-.5 2.1-.5 1 0 2.3.5 2.9 2.6 1.1 3.7-1.4 5.8-2.4 6.6l-.1.1c-.3.2-.5.4-.7.6-1 .8-1.3 1.1-1.3 1.5.1 0 .3.1.5.1.8.2 3.1.6 2.7 3.2-.3 2.1-2.3 3.7-5.9 4.8.1 1.4-.1 1.7-.2 1.8-.1.1-.3.2-.4.2h-.1c-.3 0-.4 0-.8-1.7-1.7 0-5.6-.1-7.1-2.6-.4-.7-.5-1.3-.4-1.9.3-1 1.1-1.5 1.8-1.9.1-.1.2-.1.4-.2-.2-.2-.6-.3-1.8-.5l-.9-.2c-1.3-.2-4.3-.8-5-3.9-.7-3 2-3.7 3.3-4.1.4-.1 1-.3 1.2-.4-.4-.4-2.2-.5-3.2-.5h-.5c-2.4-.1-4.1-.9-5.1-2.1-.9-1.1-1.2-2.5-.9-4.2.2-1 .8-2.8 3.4-2.8.8 0 1.6.1 2.3.3.6.1 1.1.2 1.5.2h.1c.2-.4.2-1.2-1.5-2.1-2-1.2-3.2-3-3.3-5 0-2.2 1.3-4.3 3.5-5.6 2.6-1.6 5.8-1.3 7.6.7 1.2 1.3 1.8 3.2 1.6 5.2-.2 2.1.1 2.8.8 3.1zm-8.2 37c-1.4-.9-2.6-2.4-3-3.8-.1-.6-.1-1.1 0-1.6-.1-.2-.2-.6 0-.9.2-.4.6-.4.8-.4 1.2-1.2 4-1.2 6.1.1.2.1.4.3.6.4l.1-.1c.1-.1.5-.3 1-.3.4 0 .7.1 1 .3 1.1.6 1.8 1.7 1.9 3 .1.7 0 1.5-.2 2.2h.2c.3.1.7.1 1 .1.4-.1.8.3.9.7 0 .4-.3.8-.7.9h-.5c-.3 0-.7 0-1-.1-.2 0-.3-.1-.5-.1-1 1.7-2.6 2.7-4.3 2.7-.7 0-1.4-.2-2.1-.6-.9-.5-1-1.4-.9-1.8 0 0 0-.1.1-.1-.1-.3-.3-.4-.5-.6zm-.7 47.5c.3.2.6.4.9.5.4.2.6.6.4 1-.1.3-.4.5-.7.5-.1 0-.2 0-.3-.1-.5-.2-.9-.5-1.3-.8-.2-.1-.3-.2-.4-.3-.9.5-1.9.8-2.9.8-1.6 0-2.9-.7-3.7-2-.5-.9-.2-1.7.1-2.1l.1-.1c-.1-.2-.3-.4-.4-.6-.8-1.5-1.1-3.3-.8-4.8.2-.6.4-1 .8-1.4 0-.3.1-.6.5-.8.4-.2.7-.1.9 0 1.6-.5 4.1.9 5.3 3.1.1.2.2.5.4.7.1 0 .1-.1.1-.1h.2c.7 0 1.3.4 1.6 1 1 1.7.5 3.9-1 5.4.1 0 .1 0 .2.1zm-10.5-88.6h-.1c-1 0-1.6-.7-1.7-1.1v-.1h-.8c-1.7 0-3.4-.8-4.5-1.8-.4-.4-.7-.9-.8-1.4-.2-.2-.5-.4-.5-.8s.3-.7.5-.8c.4-1.6 2.9-3 5.4-3 .3 0 .5 0 .8.1v-.2c.2-.4.7-1 1.7-1 2.1 0 3.6 1.5 4.1 3.7.1 0 .1 0 .2-.1.3-.1.6-.3.9-.5.3-.3.8-.2 1.1.2.3.3.2.8-.2 1.1-.4.3-.9.5-1.4.7-.2.1-.3.1-.5.1 0 2.8-1.8 4.9-4.2 4.9zm8-15.9c.3-1 1.1-1.3 1.6-1.3h.2c.1-.3.1-.5.2-.8.8-2.4 2.9-4.3 4.5-4.2.2-.2.5-.3.9-.2.4.1.5.5.6.7.4.2.8.6 1 1.2.7 1.3.8 3.2.3 4.8-.1.2-.2.5-.3.7 0 0 .1 0 .1.1.3.3.8 1 .5 2-.6 1.8-2.2 2.9-4.3 2.9-.6 0-1.2-.1-1.8-.3-.1.1-.2.2-.3.4-.3.4-.7.8-1.1 1.1-.1.1-.3.1-.4.1-.2 0-.5-.1-.6-.3-.2-.4-.2-.8.2-1.1.3-.2.5-.4.7-.7 0-.1.1-.1.1-.1-.7-.4-1.2-.9-1.6-1.5-.7-1-.9-2.3-.5-3.5zm-23.5-24.3c.9 1.9 1.5 2.2 2.2 2.2.1-.4.1-1.1.1-1.6 0-1.5 0-3.2 1-4.3.4-.5 1.4-1 2.9-.7 2.2.5 3.9 1.6 4.9 3.1.9 1.6 1.1 3.5.5 5.5l-.3.9c-.5 1.6-.8 2.9-.3 3.1.2 0 .6-.5.9-.8.7-.8 1.6-1.8 3-1.8.8 0 1.7.4 2.5 1.2 2.7 2.7 1.6 5.7 1.1 7l-.1.2c-.1.3-.2.5-.3.8-.5 1.2-.6 1.6-.4 2 .1 0 .3-.1.4-.1.5-.2 1-.3 1.6-.3.6 0 1.8.2 2.4 1.8.8 2.1-.2 4.5-2.9 7.2.8 1.4.7 1.6.6 1.8l-.1.2h-.1c-.1.1-.2.1-.3.1-.2 0-.4 0-1.4-1.2-1.4.8-3.4 1.7-5.2 1.7-.8 0-1.5-.2-2.1-.5-.7-.4-1.1-.9-1.2-1.5-.3-1 .3-1.9.7-2.5.1-.1.2-.3.2-.4-.3-.1-1 .1-1.8.4l-1 .3c-.7.2-1.7.6-2.8.6-1.4 0-2.5-.5-3.4-1.5-.6-.7-1-1.4-.9-2.2 0-1.3 1-2.2 1.8-2.9.3-.3.8-.7.9-1h-.2c-.7 0-1.9.6-2.8 1.1l-.4.2c-4.1 2-7.2.9-8.3-2.7-.3-.9-.3-1.7 0-2.5.7-1.4 2.3-2 3.7-2.5.5-.2 1.2-.4 1.5-.6-.1-.5-.3-1.1-2.4-1.1-2.4-.1-4.3-1.1-5.3-2.9-1-1.9-.9-4.2.4-6.5 1.2-2.1 3.2-3.3 5.3-3.3 2.2-.1 4.3 1.4 5.4 4zm4.4 81.8h.3v1.6h-20.8v-1.6h.3c7.4-1.1 7.4-2 7.4-8.3v-9.2h-21v9.2c0 6.2 0 7.2 7.4 8.3h.3v1.6h-20.8v-1.6h.3c6.7-.9 6.7-2.3 6.9-8.3V127c-.2-6-.2-7.4-6.9-8.3h-.3v-1.6h20.8v1.6h-.3c-7.4 1.1-7.4 2-7.4 8.3v8h21v-8c0-6.2 0-7.2-7.4-8.3h-.3v-1.6h20.8v1.6h-.3c-6.7.9-6.7 2.3-6.9 8.3v20.4c.2 6 .2 7.4 6.9 8.3zm-12.5 41.2v-2.4h10.4v2.4h-3.8v11.2h-2.8v-11.2h-3.8zm5.2-16c-.3 0-.9 0-1.2-.1v4.5h-2.8v-13.7c1.2 0 2.9-.1 4.5-.1 3.5 0 5.4 1.7 5.4 4.4 0 3.1-2.4 5-5.9 5zm-17 17.6c0-2.6 2-4.3 5.6-4.3.8 0 1.8.1 2.6.2l-.1 2.4c-.7-.2-1.8-.4-2.6-.4-1.7 0-2.5.7-2.5 1.7 0 2.3 6.1 1.3 6.1 5.6 0 2.8-2.4 4.6-5.9 4.6-.9 0-2.1-.2-2.8-.3l.1-2.5c.8.3 1.9.5 3 .5 1.3 0 2.5-.6 2.5-1.9 0-2.4-6-1.1-6-5.6zm-14.6 2.5v7.1h-2.8v-13.7h3.8l4.6 7.3c.5.8 1.1 1.7 1.5 2.7-.1-.9-.1-2.2-.1-3.9v-6h2.8v13.7h-3.8l-4.7-7.4c-.5-.8-1-1.8-1.4-2.6 0 .7.1 1.5.1 2.8zm3.8-29.3h3.5l-5.6 6.6 5.9 7.1h-3.8L169 179v6.4h-2.8v-13.7h2.8v6.1l5.1-6.1zm6 13.7l5.2-13.7h3.3l5.2 13.7h-3.2l-1-2.7h-5.7l-1 2.7h-2.8zm-35.7-7.7v-6h2.8v13.7h-3.8l-4.7-7.4c-.5-.8-1-1.8-1.4-2.6.1.8.1 1.6.1 2.9v7.1h-2.8v-13.7h3.8l4.6 7.3c.5.8 1.1 1.7 1.5 2.7 0-.9-.1-2.2-.1-4zm-8.4 16.8h2.8v6.1l5-6.1h3.5l-5.6 6.6 5.9 7.1h-3.8l-5.1-6.4v6.4H136v-13.7zm-8.2-37.1v-1.6h.3c7.5-.9 7.8-2.6 7.8-9.7v-26.5h-3.1c-6.9 0-9.7 2.1-11.5 8.8l-.1.3-1.5-.3.7-11.4h36.9l.7 11.4-1.5.3-.1-.3c-1.9-6.6-4.7-8.8-11.5-8.8h-3.1v26.5c0 7.1.3 8.8 7.8 9.7h.3v1.6h-22.1zm1.2 19.9v2.2h-5v3.7h5.2v2.3h-8v-13.7h8v2.2H124v3.3h5zm-14.5 25.1v5.8h-2.8v-13.7h2.8v5.4h6.4v-5.4h2.8v13.7H121v-5.8h-6.5zm-7.8-28.3v-2.4h10.4v2.4h-3.8v11.2h-2.8v-11.2h-3.8zm-19.9 20.2c4 0 6.7 2.3 6.7 6.9 0 4.5-3.3 7.2-7.2 7.2-4.4 0-6.6-2.8-6.6-6.9 0-4.5 3.3-7.2 7.1-7.2zm-9-22.6h3.1l2.7 7c.4 1.1.8 2.3 1.1 3.6.3-1.2.7-2.5 1.1-3.5l2.7-7.1h2.9l-5.2 13.7H83l-5.2-13.7zm-1.2-14.3v-1.6h.3c6.7-.9 6.7-2.3 6.9-8.3V127c-.2-6-.2-7.4-6.9-8.3h-.3v-1.6h19.2v1.6l-.3.1c-5.6.9-5.7 2.3-5.8 8.3v9.9l9.2-9.8c3.3-3.7 4.7-6.1 4.2-7.2-.2-.6-1.1-1-2.6-1.2h-.3v-1.6H116v1.6h-.3c-6 .6-10.5 5.3-14.4 9.5l-1 1.1-4.7 4.8 11.7 13c.7.7 1.3 1.4 1.9 2 4.3 4.5 6.5 6.8 10.5 6.9h.4v1.6h-.3c-1.6.2-2.9.3-4.2.3-6.7 0-9.2-2.8-13.7-7.8l-12-13v10.4c.2 6 .2 7.4 7.4 8.3h.3v1.6h-21zm75.5 18.3c0-2.6 2-4.3 5.6-4.3.8 0 1.8.1 2.6.2l-.1 2.4c-.7-.2-1.8-.4-2.6-.4-1.7 0-2.5.7-2.5 1.7 0 2.3 6.1 1.3 6.1 5.6 0 2.8-2.4 4.6-5.9 4.6-.9 0-2-.2-2.8-.3l.1-2.5c.8.3 1.9.5 3 .5 1.3 0 2.5-.6 2.5-1.9 0-2.4-6-1.1-6-5.6zm-9.5-94.5h-.7c-10.4 0-20.6 1.8-30.3 5.4-.5.2-1.1-.1-1.3-.6-.2-.5.1-1.1.6-1.3 9.9-3.7 20.3-5.5 30.9-5.5h.7c10.7 0 21.1 1.9 31 5.5.5.2.8.8.6 1.3-.1.4-.5.6-.9.6-.1 0-.2 0-.3-.1-9.7-3.5-19.8-5.3-30.3-5.3zm31.1.5c-9.4-3.5-19.2-5.4-29.3-5.6l-2.1 1.2-2.1-1.2c-10.1.2-20 2.1-29.3 5.6l-1.3 1.6-4.1-2.3 1.4-3.8.2-.6 1.8.3c10.1-3.9 20.8-5.9 31.7-6.1l1.7-1 1.7 1c10.9.2 21.6 2.3 31.7 6.1l1.8-.3.2.6 1.4 3.8-4.1 2.3-1.3-1.6zm-78.6 90h8v2.2H98v3.3h5v2.2h-5v3.7h5.2v2.3h-8v-13.7zm9.1 22.6c.9 0 2 .1 2.9.4l-.3 2.5c-1-.3-1.9-.5-2.9-.5-2.7 0-4.1 1.9-4.1 4.7 0 2.9 1.6 4.5 4.3 4.5 1 0 2-.2 2.9-.6l.2 2.5c-1.1.4-2.3.6-3.7.6-4.5 0-6.7-2.6-6.7-6.7 0-4 2.3-7.4 7.4-7.4zm52.4 0c4 0 6.7 2.3 6.7 6.9 0 4.5-3.3 7.2-7.2 7.2-4.4 0-6.6-2.8-6.6-6.9 0-4.5 3.3-7.2 7.1-7.2zM94 52.6h.6c0-.1.1-.3.1-.4-1.2-.6-2.1-1.9-2.1-3.4 0-2.1 1.7-3.8 3.8-3.8.7 0 1.4.2 1.9.5.1-.1.2-.3.3-.4-.6-.6-1-1.4-1-2.2 0-1.7 1.4-3.1 3.1-3.1 1.1 0 2 .5 2.6 1.3.2-.1.4-.2.5-.4-.4-.5-.6-1.1-.6-1.7 0-1.6 1.3-2.9 2.9-2.9 1.2 0 2.3.8 2.7 1.9.3-.1.6-.3.9-.4-.2-.4-.4-.8-.4-1.3 0-1.4 1.2-2.6 2.6-2.6 1.3 0 2.4 1 2.6 2.2.2-.1.4-.1.6-.2.4-1.5 1.8-2.6 3.5-2.6.4 0 .7.1 1.1.2.1-.1.3-.2.4-.3v-.2c0-1.7 1.4-3.1 3.1-3.1.7 0 1.3.2 1.8.6.1 0 .2-.1.4-.1v-.1c0-1.5 1.2-2.8 2.8-2.8 1 0 1.9.6 2.4 1.4.2 0 .4-.1.6-.1v-.1c0-1.4 1.1-2.5 2.5-2.5 1.2 0 2.2.9 2.5 2 .2 0 .5 0 .7-.1-.3-.7-.5-1.5-.5-2.3 0-2.3 1.3-4.3 3.2-5.3 0 0 .7-.4 1.7-.6v-4.5h-2.5c-.1-.1-.3-.4-.3-1.1 0-.6.2-1 .3-1.1h2.5v-2.5c.1-.1.5-.3 1.1-.3.6 0 1 .2 1.1.3V13h2.6c.1.1.3.5.3 1.1 0 .6-.2 1-.3 1.1h-2.6v4.5c1 .2 1.7.6 1.7.6 1.9 1 3.2 3 3.2 5.3 0 .8-.2 1.6-.5 2.3.2 0 .5 0 .7.1.2-1.1 1.2-2 2.5-2 1.4 0 2.5 1.1 2.5 2.5v.1c.2 0 .4.1.6.1.5-.8 1.4-1.4 2.4-1.4 1.5 0 2.8 1.2 2.8 2.8v.1c.1 0 .2.1.4.1.5-.4 1.1-.6 1.8-.6 1.7 0 3.1 1.4 3.1 3.1v.2c.1.1.3.2.4.3.3-.1.7-.2 1.1-.2 1.7 0 3 1.1 3.5 2.6.2.1.4.1.6.2.2-1.2 1.3-2.2 2.6-2.2 1.4 0 2.6 1.2 2.6 2.6 0 .5-.1.9-.4 1.3.3.1.6.3.9.4.4-1.1 1.4-1.9 2.7-1.9 1.6 0 2.9 1.3 2.9 2.9 0 .6-.2 1.2-.6 1.7.2.1.4.2.5.4.6-.8 1.5-1.3 2.6-1.3 1.7 0 3.1 1.4 3.1 3.1 0 .9-.4 1.7-1 2.2.1.1.2.3.3.4.6-.3 1.2-.5 1.9-.5 2.1 0 3.8 1.7 3.8 3.8 0 1.5-.9 2.7-2.1 3.4 0 .1.1.3.1.4h.6c2.5 0 4.6 2 4.6 4.6 0 1.3-.6 2.5-1.5 3.3 0 0-2 1.8-3.2 3.9.1.3 1.1 2.3-.3 4.4-1.5 2.3-4.1 1.9-4.2 1.9-1.8 2.2-4.7 4.9-7.2 4.2 0 0-15.3-7.1-36.5-7.1S106 74.9 106 74.9c-2.4.7-5.4-2-7.2-4.2-.1 0-2.7.4-4.2-1.9-1.4-2.1-.4-4.1-.3-4.4-1.3-2.1-3.2-3.9-3.2-3.9-.9-.8-1.5-2-1.5-3.3-.2-2.6 1.9-4.6 4.4-4.6zM57.7 91.9c.6-1.6 1.8-1.8 2.4-1.8.6 0 1.1.2 1.6.3.1 0 .3.1.4.1.2-.3.1-.7-.4-2-.1-.3-.2-.5-.3-.8l-.1-.2c-.5-1.3-1.6-4.2 1.1-7 .9-.8 1.7-1.2 2.5-1.2 1.4 0 2.3 1 3 1.8.3.3.7.8.9.9.6-.3.2-1.6-.3-3.1l-.3-.9c-.6-2-.4-3.9.5-5.5 1-1.6 2.6-2.7 4.8-3.1.3-.1.6-.1.8-.1 1.1 0 1.7.4 2.1.8 1 1.1 1 2.8 1 4.3 0 .5 0 1.2.1 1.6.7 0 1.4-.4 2.2-2.3 1.1-2.5 3.2-4.1 5.6-4.1 2.2 0 4.1 1.3 5.3 3.3 1.3 2.3 1.4 4.6.4 6.5-1 1.8-2.9 2.8-5.3 2.9-2 0-2.3.6-2.4 1.1.3.2 1 .4 1.5.6 1.4.5 3.1 1.1 3.7 2.5.4.8.4 1.6 0 2.5-1.1 3.5-4.3 4.6-8.3 2.6l-.4-.2c-1-.5-2.1-1.1-2.8-1.1h-.2c.1.2.6.7.9 1 .8.7 1.7 1.7 1.8 2.9 0 .8-.3 1.5-1 2.2-.9 1-2 1.5-3.4 1.5-1.1 0-2.1-.3-2.8-.6l-1-.3c-.8-.3-1.5-.5-1.8-.4.1.1.2.3.2.4.4.6.9 1.5.7 2.5-.2.6-.6 1.1-1.2 1.5-.6.3-1.3.5-2.1.5-1.8 0-3.8-.9-5.2-1.7-1.1 1.2-1.3 1.2-1.4 1.2h-.4v-.1l-.1-.2c-.1-.2-.2-.4.6-1.8-2.7-2.5-3.7-5-2.9-7zm3.9 108.3c.3.3.6 1.2.1 2.1-.7 1.3-2.1 2-3.7 2-1 0-2-.3-2.9-.8-.1.1-.2.2-.4.3-.4.3-.8.6-1.3.8-.1 0-.2.1-.3.1-.3 0-.6-.2-.7-.5-.2-.4 0-.8.4-1 .3-.1.6-.3.9-.5.1 0 .1-.1.1-.1-1.6-1.5-2-3.6-1-5.4.4-.6 1-1 1.6-1h.2c.1 0 .1 0 .1.1.1-.2.2-.5.4-.7 1.3-2.2 3.8-3.6 5.3-3.1.2-.1.6-.2 1 0s.4.6.4.8c.3.3.6.8.8 1.4.4 1.4.1 3.3-.8 4.8-.1.2-.3.4-.4.6.1.1.2.1.2.1zm-9.2-44.5c.1.4 0 1.3-.9 1.8-.6.4-1.3.6-2.1.6-1.7 0-3.2-1-4.3-2.7-.1 0-.3.1-.5.1-.3.1-.7.1-1 .1h-.5c-.4 0-.7-.4-.7-.9.1-.4.4-.7.9-.7.3 0 .7 0 1-.1h.2c-.2-.7-.3-1.5-.2-2.2.2-1.3.9-2.3 1.9-3 .3-.2.7-.3 1-.3.6 0 1 .3 1 .3l.1.1c.2-.2.4-.3.6-.4 2.1-1.3 5-1.3 6.2-.1.3 0 .6.1.8.4.2.4.1.7 0 .9.2.4.2 1 0 1.6-.4 1.5-1.5 3-3 3.8-.2.1-.4.3-.7.4l.2.3zm7.5-46.6c-.1 0-.3-.1-.5-.1-.5-.2-1-.4-1.4-.7-.3-.3-.4-.7-.2-1.1.3-.3.7-.4 1.1-.2.3.2.6.4.9.5.1 0 .1 0 .2.1.2-.8.5-1.5.9-2 .8-1 1.9-1.6 3.2-1.6 1.1 0 1.6.7 1.8 1v.2c.3 0 .5-.1.8-.1 2.5-.1 5 1.4 5.4 3 .2.1.5.4.5.8s-.3.7-.5.8c-.1.5-.3.9-.8 1.4-1 1.1-2.8 1.8-4.5 1.8H66v.1c-.1.4-.7 1.1-1.7 1.1h-.1c-2.4 0-4.2-2.1-4.3-5zm-13-10.6c-.5-1.6-.4-3.5.3-4.8.3-.5.6-.9 1-1.2.1-.3.2-.6.6-.7.4-.1.7.1.9.2 1.6-.1 3.8 1.8 4.5 4.2.1.2.1.5.2.8h.2c.4 0 1.2.3 1.6 1.3.3 1 .2 2.1-.3 3.1-.4.8-1.1 1.4-1.9 1.9 0 0 .1.1.1.2.2.3.5.5.7.7.4.2.4.7.2 1.1-.1.2-.4.3-.6.3-.2 0-.3 0-.4-.1-.4-.3-.8-.6-1.1-1.1-.1-.2-.2-.3-.3-.4-.6.2-1.2.3-1.8.3-2.1 0-3.7-1.1-4.3-2.9-.3-1 .2-1.7.5-2 0 0 .1 0 .1-.1 0-.3-.1-.5-.2-.8zm-13.1 31.1c.6-2.2 2-2.6 2.9-2.6.8 0 1.5.3 2.1.5.4.2.9.3 1.2.3.4-.5-.5-1.5-1.7-2.6-.2-.2-.5-.4-.7-.7-1.5-1.5-2.3-3.4-2.3-5.2.1-1.8 1-3.5 2.8-4.9.7-.6 1.4-.9 2.1-.9 1.9 0 2.9 1.9 3.7 3.3.2.4.6 1.1.8 1.4.7-.4 1-1 .8-3.1-.2-2.1.4-3.9 1.6-5.2 1.8-2 5-2.3 7.6-.7 2.2 1.4 3.5 3.5 3.5 5.6 0 2-1.2 3.8-3.3 5-1.7.9-1.7 1.7-1.5 2.1h.1c.4 0 .9-.1 1.5-.2.7-.1 1.5-.3 2.3-.3 2.6 0 3.3 1.8 3.4 2.8.3 1.7 0 3.1-.9 4.2-1 1.3-2.7 2-5.1 2.1h-.5c-1 0-2.8.1-3.2.5.2.1.8.3 1.2.4 1.3.3 4 1 3.3 4.1-.7 3-3.7 3.6-5 3.8l-.9.2c-1.2.2-1.6.4-1.8.5.1.1.2.1.4.2.6.4 1.5.9 1.8 1.9.2.6 0 1.2-.3 1.9-1.5 2.4-5.5 2.6-7.1 2.6-.4 1.7-.6 1.7-.8 1.7h-.1c-.1 0-.3-.1-.4-.2-.1-.1-.3-.4-.2-1.8-3.6-1.1-5.6-2.7-5.9-4.8-.3-2.6 1.9-3 2.7-3.2.1 0 .3-.1.5-.1 0-.4-.3-.7-1.3-1.5-.2-.2-.5-.4-.7-.6l-.1-.1c-1.1-.7-3.5-2.7-2.5-6.4zm-6.3 16.6c.3-.3.7-.3.9-.2 1.4-.9 4.2-.3 6 1.4.2.2.4.4.5.6l.1-.1c.1 0 .3-.1.7-.1.3 0 .8.1 1.3.6.8.8 1.2 1.7 1.3 2.8 0 .9-.2 1.8-.7 2.6 0 0 .1 0 .2.1.3.1.7.2 1 .3.4 0 .7.4.7.8s-.4.7-.8.7h-.1c-.5-.1-1-.2-1.5-.4-.2-.1-.3-.1-.4-.2-1.1 1.2-2.5 1.8-3.9 1.8-1 0-2-.4-2.8-1.1-.8-.7-.7-1.6-.5-2l.1-.1c-.2-.2-.4-.3-.6-.5-1.2-1.2-2.1-2.9-2.1-4.4 0-.6.1-1.1.3-1.5.1-.4 0-.8.3-1.1zm5.3 39.8c-.3-1.2-.2-2.1.3-2.9.7-1.1 2-1.3 3.1-1.5.4-.1 1-.2 1.2-.3 0-.6-1.3-1-2.9-1.5-.3-.1-.5-.1-.8-.2-2-.6-3.6-1.8-4.4-3.4-.8-1.6-.9-3.6-.2-5.6.8-1.8 2-2.2 2.8-2.2 1.2 0 2.5.8 3.5 1.5.4.3 1 .7 1.4.8.3-.6.5-1.4-.7-3.1-1.5-2.2-1.8-4.7-.7-6.7 1-1.9 3.1-3 5.5-3h.3c2.6.1 4.8 1.3 5.8 3.2 1 1.8.8 3.9-.3 5.9-1.1 1.9-.8 2.3-.4 2.6.3-.1.9-.6 1.3-1 1.1-.9 2.4-1.9 3.8-1.9.7 0 1.6.2 2.5 1.4 1.1 1.3 1.6 2.7 1.4 4.1-.2 1.6-1.4 3.1-3.5 4.4l-.5.3c-.7.4-2.4 1.4-2.4 1.9h.1c.3 0 .8-.1 1.2-.2.6-.2 1.3-.3 2-.3 1.4 0 2.4.8 2.8 2.3.8 3-1.4 4.9-2.5 5.8l-.7.6c-1 .8-1.3 1.1-1.4 1.4h.4c.7 0 1.8 0 2.5.8.4.4.6 1.1.6 1.8-.1 2.8-3.4 4.8-4.9 5.7.5 1.8.4 2 .3 2.1l-.2.1c-.1.1-.2.2-.3.2-.2 0-.5 0-1.3-1.8-.7.2-1.9.4-3.2.4-2 0-3.4-.6-4.3-1.8-1.6-2.1.1-3.6.8-4.1l.3-.3c-.2-.3-.6-.4-1.8-.6-.3-.1-.6-.1-1-.2h-.2c-1.3-.3-4.4-.9-5.3-4.7zm14.6 20.9c-.6 2.4-2.4 4-4.4 4-.3 0-.7 0-1-.1-1-.3-1.4-1-1.4-1.5v-.2c-.3 0-.5-.1-.8-.1-1.6-.4-3.2-1.5-4-2.8-.3-.5-.5-1-.4-1.5-.2-.2-.4-.5-.3-.9.1-.4.4-.6.7-.7.8-1.5 3.5-2.3 5.9-1.7.3.1.5.1.7.2 0 0 0-.1.1-.1.3-.4 1.1-.9 2-.6 1.2.3 2.2 1.1 2.7 2.3.3.7.4 1.4.4 2.2h.2c.4 0 .7-.1 1-.3.4-.2.8 0 1 .4.2.4 0 .8-.4 1-.5.2-1 .3-1.5.4h-.5zM69.2 237c.1-.1.1-.3.2-.5-.1-.1-.2-.1-.3-.1-.4 0-.9.2-1.6.4-.3.1-.5.2-.8.3l-.2.1c-.6.2-1.6.5-2.8.5-1.6 0-3-.6-4.1-1.9-.8-1-1.1-1.9-1-2.7.1-1.3 1.2-2.1 2-2.8.3-.2.8-.7.9-.9-.1-.2-.1-.3-.7-.3-.7 0-1.6.2-2.4.5-.3.1-.6.2-.9.2-.7.2-1.4.3-2.1.3-3.4 0-5.8-2.3-6.3-6-.1-1.1.1-2 .6-2.6.8-1 2.2-1.1 3.3-1.1H55.9c.1-.7-.2-1.3-2.2-2.2-2.4-1.3-3.8-3.4-3.8-5.7 0-2.2 1.3-4.2 3.5-5.3 2.8-1.4 5.8-1.1 7.6.7 1.1 1.2 1.6 2.8 1.5 4.7 0 1.9.6 2.3 1.1 2.4.2-.3.5-1 .7-1.5.6-1.6 1.5-3.9 3.7-3.9.4 0 .9.1 1.4.3 1.5.6 2.6 1.6 3.1 2.9.6 1.6.3 3.4-.8 5.6l-.2.4c-.4.6-1.4 2.5-1.2 3 .2 0 .7-.5 1-.8.8-.7 1.7-1.6 2.9-1.6.8 0 1.5.4 2.2 1.1 2.2 2.2 1.1 5 .7 6.2l-.3.9c-.4 1.1-.5 1.6-.5 1.8.1-.1.2-.1.3-.2.5-.3 1.2-.6 1.9-.6.6 0 1.4.2 2.1 1.3 1.5 2.5-.8 6.2-1.6 7.5 1.3 1.3 1.3 1.5 1.2 1.7 0 .1-.1.1-.1.2s-.2.2-.5.2-.9-.3-1.7-.9c-1.1 1-3.3 2.7-5.5 2.7-.5 0-1-.1-1.5-.3-2.8-1-2-3.2-1.7-4zm14.8 8.6c-.3.4-.7.8-1.1 1.1-.2.1-.3.2-.4.3.4 1.5.2 3-.4 4.1-.5 1-1.4 1.6-2.4 1.9-.2.1-.4.1-.6.1-.7 0-1.2-.4-1.4-.7 0 0 0-.1-.1-.1-.2.1-.5.2-.7.2-.6.2-1.2.2-1.8.2-1.1 0-2.2-.3-3-.7-.5-.3-.9-.7-1.1-1.1-.3-.1-.6-.2-.7-.6-.1-.4.1-.7.3-.9-.1-1.7 1.9-3.7 4.3-4.4.3-.1.5-.1.8-.2v-.2c0-.4.4-1.2 1.4-1.5.4-.1.7-.1 1.1-.1 1.6 0 3 1 3.9 2.5l.1-.1c.3-.2.5-.4.7-.7.3-.3.7-.4 1.1-.2.2.3.3.7 0 1.1zm1.8-3.9c-.2 0-.3-.1-.5-.2-.3-.3-.4-.8-.1-1.1.2-.3.4-.6.5-.9 0-.1 0-.1.1-.2-.8-.2-1.4-.5-2-1-1-.8-1.5-2-1.5-3.2 0-1 .7-1.6 1.1-1.7h.2v-.8c0-2.5 1.6-4.9 3.2-5.3.2-.2.4-.5.8-.5s.7.3.8.5c.5.1.9.4 1.3.8 1 1.1 1.7 2.9 1.7 4.5 0 .3 0 .5-.1.8h.1c.4.2 1.1.7 1.1 1.8 0 2.4-2.2 4.3-5 4.3h-.1c0 .1-.1.3-.1.5-.2.5-.4 1-.7 1.3-.4.3-.6.4-.8.4zm34.2 23.9c-2.7.3-3-2-3.1-2.9 0-.1-.1-.3-.1-.5-.4 0-.8.4-1.5 1.2-.2.2-.4.5-.7.8l-.1.1c-.7.8-2.3 2.5-4.8 2.5-.7 0-1.3-.1-2-.4-1.2-.4-1.9-1-2.3-1.8-.5-1.2 0-2.4.4-3.4.2-.4.4-1 .4-1.2-.1-.1-.2-.1-.3-.1-.6 0-1.8 1.1-2.6 1.8l-.6.6c-1.5 1.3-3.2 2.1-4.9 2.1-1.4 0-3.5-.5-5.4-2.9-.7-1-.9-1.9-.7-2.8.4-1.6 2-2.3 3.5-3 .5-.2 1.2-.6 1.4-.8-.3-.7-.9-1.1-2.4-1.1H93c-2.5 0-4.6-1.2-5.7-3.1-1.1-2-.8-4.4.6-6.5 1.4-2.1 3.4-3.3 5.5-3.3s4.1 1.3 5.3 3.4c.7 1.2 1.3 1.8 1.8 1.8.1 0 .2 0 .3-.1 0-.4-.1-1.1-.1-1.7-.2-1.6-.4-3.4.6-4.6.5-.6 1.3-1 2.3-1.1.3 0 .7-.1 1-.1 3.3 0 5.2 2.3 5.2 6.4v.6c0 .9 0 2.9.4 3.2.2-.1.4-.9.6-1.3.4-1.2 1-3.3 3.2-3.3.3 0 .7.1 1.1.2 3 .9 3.5 3.8 3.7 5.3l.1.9c.2 1.4.3 1.8.5 2 .1-.1.2-.3.3-.4.5-.7 1.1-1.8 2.4-1.8.5 0 .9.2 1.4.5 2.3 1.5 2.4 5.2 2.3 7.1 5.1.9 5.1 1.3 5.1 1.7V259.9c-.1.4-.6.4-1.1.4-.8 0-2.3-.1-4.2-.4-1.7 3.6-3.4 5.5-5.6 5.7zm31.1-.3c-1-1-2.7-2.9-4.6-5.2-1.1 1.2-2.1 2.3-2.9 3.3.6.7 1.2 1.3 1.6 1.7 3 3 6.6 3.3 6.6 3.3s-3.8 2.2-9-3.1l-.5-.5-.5.5c-5.2 5.3-9 3.1-9 3.1s3.6-.2 6.6-3.3c.4-.4 1-1 1.6-1.7-.8-.9-1.8-2.1-2.9-3.3-1.9 2.2-3.7 4.2-4.6 5.2-5.2 5.3-9 3.1-9 3.1s3.6-.2 6.6-3.3c1.3-1.3 3.5-3.7 5.8-6.4-2.5-2.8-5.1-5.8-7-7.6-3.7-3.7-7.5-3.6-7.5-3.6s4.3-2.1 8.9 2.4c1.2 1.2 4 4.3 6.8 7.5 1-1.1 2-2.3 3-3.3-1-1.1-2-2.2-2.8-3-3.7-3.7-7.5-3.6-7.5-3.6s4.3-2.1 8.9 2.4c.6.6 1.5 1.6 2.6 2.8 1.1-1.2 2-2.2 2.6-2.8 4.6-4.6 8.9-2.4 8.9-2.4s-3.8 0-7.5 3.6c-.8.8-1.8 1.8-2.8 3 .9 1 1.9 2.2 3 3.3 2.8-3.2 5.6-6.2 6.8-7.5 4.6-4.6 8.9-2.4 8.9-2.4s-3.8 0-7.5 3.6c-1.8 1.8-4.5 4.8-7 7.6 2.3 2.6 4.6 5.1 5.8 6.4 3 3 6.6 3.3 6.6 3.3s-3.8 2.2-9-3.1zm46.3-14.5c-1.1 2.1-3.5 3.3-6.3 3.1h-.6c-1.5 0-2.1.4-2.4 1.1.3.2 1 .6 1.4.8 1.4.7 3 1.5 3.5 3 .2.9 0 1.8-.7 2.8-1.9 2.5-4 3-5.4 3-1.7 0-3.5-.7-4.9-2.1l-.6-.6c-.8-.8-1.9-1.8-2.6-1.8-.1 0-.2 0-.3.1 0 .2.2.8.4 1.2.4 1 .9 2.2.4 3.4-.4.8-1.1 1.4-2.3 1.8-.7.2-1.4.4-2 .4-2.5 0-4-1.7-4.8-2.5l-.1-.1c-.2-.3-.5-.5-.7-.8-.7-.8-1.1-1.2-1.5-1.2 0 .1-.1.3-.1.5-.1.9-.4 2.9-2.7 2.9h-.4c-2.2-.2-3.9-2.2-5.1-5.7-2 .3-3.4.4-4.2.4-.5 0-1 0-1.1-.4v-.2-.1c0-.4 0-.8 5.1-1.7 0-1.9.1-5.6 2.3-7.1.5-.3 1-.5 1.4-.5 1.3 0 2 1.1 2.4 1.8.1.1.2.3.3.4.2-.2.3-.6.5-2l.1-.9c.2-1.4.6-4.4 3.7-5.3.4-.1.8-.2 1.1-.2 2.2 0 2.8 2.1 3.2 3.3.1.4.4 1.2.5 1.3.4-.3.4-2.3.4-3.2v-.6c0-4.5 2.3-6.8 6.2-6.3.9.1 1.7.4 2.2 1.1 1 1.2.8 3 .6 4.6-.1.5-.2 1.3-.1 1.7.1 0 .2.1.3.1.5 0 1.1-.6 1.8-1.8 1.2-2.2 3.1-3.4 5.3-3.4 2.1 0 4.1 1.2 5.5 3.3 1.1 2 1.4 4.4.3 6.4zm1.9-9.3c-.1.1-.3.2-.5.2s-.4-.1-.6-.3c-.3-.4-.6-.8-.7-1.3-.1-.2-.1-.3-.2-.5h-.1c-2.9 0-5-1.8-5-4.3 0-1 .7-1.6 1.1-1.8h.1c0-.3 0-.5-.1-.8 0-1.7.6-3.5 1.7-4.5.4-.4.9-.7 1.3-.8.1-.2.4-.5.8-.5s.7.3.8.5c1.6.4 3.1 2.8 3.2 5.3v.8h.2c.4.2 1.1.7 1.1 1.7 0 2-1.4 3.6-3.5 4.2 0 0 0 .1.1.2.1.3.3.6.5.9.1.3.1.7-.2 1zm15 8.7c-.1.4-.4.6-.7.6-.2.4-.6.8-1.1 1.1-.8.5-1.9.7-3 .7-.6 0-1.2-.1-1.8-.2-.2-.1-.5-.1-.7-.2 0 0 0 .1-.1.1-.2.3-.7.7-1.4.7-.2 0-.4 0-.6-.1-1.1-.3-1.9-.9-2.4-1.9-.7-1.1-.8-2.6-.4-4.1-.1-.1-.2-.1-.4-.3-.4-.3-.8-.6-1.1-1.1-.3-.3-.2-.8.2-1.1.3-.3.8-.2 1.1.2.2.3.5.5.7.7.1 0 .1.1.1.1.9-1.5 2.3-2.5 3.9-2.5.4 0 .7 0 1.1.1 1 .3 1.4 1.1 1.4 1.5v.2c.3 0 .5.1.8.2 2.4.7 4.4 2.7 4.3 4.4 0 .2.2.5.1.9zm21.4-26c-.5 3.7-3 6-6.3 6-.7 0-1.4-.1-2.1-.3-.3-.1-.6-.1-.9-.2-.9-.2-1.8-.5-2.4-.5-.6 0-.7.2-.7.3 0 .2.6.6.9.9.8.6 1.8 1.5 2 2.8.1.9-.2 1.8-1 2.7-1.2 1.3-2.6 1.9-4.2 1.9-1.2 0-2.1-.3-2.8-.5l-.2-.1-.9-.3c-.7-.2-1.2-.4-1.6-.4-.1 0-.2 0-.3.1 0 .1.1.3.2.5.3.8 1.2 3-1.3 4-.5.2-1 .3-1.5.3-2.3 0-4.4-1.7-5.5-2.7-.8.6-1.4.9-1.7.9-.1 0-.3-.1-.3-.1l-.1-.1c-.1-.1-.1-.1-.1-.2-.1-.2-.1-.4 1.2-1.7-.8-1.3-3-5-1.6-7.6.6-1.1 1.4-1.3 2-1.3.7 0 1.4.3 1.9.6.1.1.2.1.3.2.1-.3-.1-.7-.5-1.8l-.3-.9c-.5-1.2-1.5-4.1.7-6.3.6-.7 1.4-1.1 2.2-1.1 1.2 0 2.2.9 2.9 1.6.3.3.7.7 1 .8.2-.5-.8-2.4-1.1-3l-.2-.4c-1.1-2.2-1.4-4-.8-5.6.5-1.3 1.5-2.3 3.1-2.9.5-.2.9-.3 1.4-.3 2.2 0 3.1 2.2 3.7 3.9.2.5.5 1.2.7 1.5.4-.1 1-.4 1.1-2.4-.1-1.8.4-3.4 1.5-4.6 1.7-1.8 4.8-2.1 7.6-.7 2.2 1.1 3.5 3.1 3.5 5.3 0 2.3-1.4 4.4-3.8 5.7-2.1.9-2.3 1.6-2.3 2.3H232c1.1 0 2.4.1 3.3 1.1.3.6.5 1.5.4 2.6zm13.4-19.5c0 .5-.1 1-.4 1.5-.8 1.3-2.3 2.4-4 2.8-.3.1-.5.1-.8.1v.2c-.1.4-.4 1.2-1.4 1.5-.3.1-.7.1-1 .1-2 0-3.8-1.6-4.4-4h-.5c-.5 0-1-.2-1.5-.4-.4-.2-.6-.6-.4-1 .2-.4.6-.6 1-.4.3.1.6.2 1 .3h.2c0-.8.1-1.5.4-2.2.5-1.2 1.5-2 2.7-2.3.9-.2 1.7.2 2 .6 0 0 0 .1.1.1.2-.1.5-.2.7-.2 2.4-.6 5.2.2 5.9 1.7.3.1.6.3.7.7.1.4-.1.7-.3.9zm6.2-28.4c-.8 1.6-2.4 2.9-4.4 3.4-.2.1-.5.1-.8.2-1.7.5-3 .9-2.9 1.5.1.1.8.2 1.2.2 1 .2 2.3.4 3.1 1.5.5.7.6 1.7.3 2.9-.8 3.8-3.9 4.4-5.3 4.6h-.2c-.3.1-.7.1-1 .2-1.2.2-1.6.3-1.8.6l.3.3c.7.6 2.4 2 .8 4.1-.9 1.2-2.3 1.8-4.3 1.8-1.2 0-2.4-.2-3.2-.4-.8 1.8-1.1 1.8-1.3 1.8l-.1-.1-.4-.2c-.1-.1-.2-.4.3-2.1-1.5-.9-4.9-2.9-4.9-5.7 0-.8.2-1.4.6-1.8.7-.7 1.7-.7 2.5-.8h.4c0-.3-.4-.6-1.4-1.4l-.7-.6c-1.1-.9-3.4-2.8-2.5-5.8.4-1.5 1.4-2.3 2.8-2.3.7 0 1.4.2 2 .3.5.1.9.2 1.2.2h.1c-.1-.5-1.7-1.5-2.4-1.9l-.5-.3c-2-1.3-3.2-2.7-3.5-4.4-.2-1.4.3-2.8 1.4-4.1.8-1.1 1.7-1.3 2.4-1.3 1.4 0 2.7 1 3.8 1.9.4.3 1 .8 1.3 1 .4-.3.7-.8-.4-2.6-1.2-2-1.3-4.2-.3-5.9 1-1.9 3.2-3.1 5.8-3.2h.3c2.4 0 4.5 1.1 5.5 3 1.1 2 .8 4.5-.7 6.7-1.2 1.7-1 2.5-.7 3.1.3-.1 1-.5 1.4-.8 1.1-.7 2.3-1.5 3.5-1.5.9 0 2 .4 2.8 2.1.8 2.2.7 4.2-.1 5.8zm.2-23.3c-.2.2-.4.3-.6.5l.1.1c.2.4.2 1.3-.5 2-.8.7-1.7 1.1-2.8 1.1-1.4 0-2.8-.7-3.9-1.8-.1.1-.3.1-.4.2-.5.2-1 .3-1.5.4h-.1c-.4 0-.7-.3-.8-.7 0-.4.3-.8.7-.8.3 0 .7-.1 1-.3.1 0 .1 0 .2-.1-.5-.8-.7-1.7-.7-2.6 0-1.1.5-2.1 1.3-2.8.5-.5 1-.5 1.3-.5.4 0 .6.1.7.1.1 0 .1.1.1.1.2-.2.3-.4.5-.6 1.8-1.7 4.6-2.3 6-1.4.3 0 .6 0 .9.3.3.3.2.7.2.9.2.4.4.9.3 1.5 0 1.6-.8 3.3-2 4.4z" class="st0"/>
  <path d="M236.6 115c.1-1.4-.2-2.6-1-3.5-1.1-1.2-3-1.4-4.7-.3-1.5.9-2.4 2.3-2.4 3.6 0 1.2.8 2.3 2.1 3 3.3 1.9 2.9 4.1 2.4 5.3-.3.6-.9 1.2-2.2 1.2-.6 0-1.2-.1-1.9-.2-.6-.1-1.3-.2-1.9-.2-.9 0-1.1.3-1.2.8-.2 1 0 1.8.4 2.4.6.7 1.8 1.2 3.4 1.3h.4c1.8.1 3.8.1 4.8 1.3.4.5.7 1.1.6 1.8-.1 1.7-1.8 2.2-3 2.5-1.8.5-1.7.6-1.6 1.3.3 1.5 1.7 1.8 3.2 2.1l.9.2c1.7.3 3.4.6 3.7 2.7.2 1.3-.9 2-1.6 2.4-.2.1-.5.3-.7.4 0 0 0 .1.1.1.3.5 1.3 1.3 4.6 1.4-.3-1.3-.6-2.9-1-5.1-1.4-7.8-5.2-17.6-6.9-21.8-.9-2.4-.9-2.4-.7-2.6.1-.1.2-.1.3-.1.9 0 7.7 14.5 9.3 24.1.4 2.3.7 4 .9 5.2 3.1-1 3.7-2.1 3.8-2.8v-.4c-.1-.1-.6-.2-.9-.2-.8-.1-2-.4-2.3-1.7-.4-1.9.9-3 2.1-4 .2-.2.4-.4.7-.6l.1-.1c1.2-1 2.3-2.1 1.7-4.2-.3-1-.6-1-.7-1-.3 0-.8.2-1.3.4-.6.2-1.3.5-2 .5-.8 0-1.4-.3-1.9-.9-1.7-2.1.5-4.3 1.9-5.7l.6-.6c1.1-1.1 1.7-2.3 1.6-3.5-.1-1.2-.7-2.3-1.9-3.3-.4-.3-.6-.3-.7-.3-.5 0-1.2 1.3-1.7 2.1-.7 1.3-1.4 2.7-2.8 2.7-.3 0-.5-.1-.8-.2-2.2-1.1-1.9-4-1.8-5.5zM234.2 156.4c1.3.6 3-.2 3.9-1.8.5-.9.7-1.8.6-2.6-.1-.5-.3-1.1-.9-1.6 0 1-.4 2.3-1.1 3.5-.7 1.1-1.6 2.1-2.5 2.5zM234.1 154.6c.4-.3.9-.9 1.3-1.6.4-.7.6-1.4.8-1.9-.4-.5-.9-.9-1.5-1.3-1.8-1.1-3.9-.8-4.3-.3l-.3.3c0 .1 0 .3-.1.4-.1.1-.1.4 0 .8.2.9 1 2.1 2.3 2.9.5.4 1.2.6 1.8.7zM240.1 202.5c-.7.3-1.1.9-1.3 1.3-.4.8-.4 1.7-.2 2.7.5 1.8 1.8 3 3.2 2.8-.8-.7-1.4-2-1.7-3.2-.3-1.2-.3-2.6 0-3.6zM252.6 170.8c-.6 0-1.5.6-2.3 1.1-1 .6-1.9 1.2-2.8 1.2-.6 0-1.2-.3-1.5-.7-1.9-2.6-.1-5.2.5-6 1-1.5 1.2-3 .6-4.3-.6-1.1-1.9-1.8-3.4-1.8h-.2c-1.8.1-3.2.8-3.9 2-.6 1-.5 2.3.3 3.6.6 1 2.3 4-.4 5.8-.3.2-.7.3-1.1.3-1 0-1.9-.7-2.9-1.5-.7-.6-1.7-1.4-2.3-1.4-.1 0-.3 0-.6.4-.7.9-1 1.6-.9 2.3.1.9 1 1.9 2.4 2.7l.5.3c1.5.9 3.2 2 3.5 3.5.1.7 0 1.3-.5 1.9-.3.4-.9.9-2 .9-.6 0-1.2-.2-1.8-.3-.5-.1-1-.3-1.4-.3-.3 0-.4 0-.6.6-.4 1.4.6 2.4 1.8 3.4l.7.6c1.3 1.1 2.7 2.2 2 4.2-.4 1.3-1.8 1.3-2.6 1.3-.2 0-.6 0-.8.1v.1c0 .6.5 1.7 3.3 3.5.4-1.2.9-2.7 1.6-4.6 2.7-7.6 4.2-18.1 4.8-22.6.3-2.4.3-2.4.7-2.4l.3.2c.4.5-.4 15.6-3.9 25.5-.7 2-1.3 3.5-1.8 4.7.6.1 1.4.3 2.2.3 1.2 0 2-.3 2.5-.9.2-.2.2-.3.2-.3 0-.1-.4-.5-.6-.6-.6-.5-1.6-1.3-1.1-2.6.6-1.8 2.2-2.1 3.7-2.4.3-.1.6-.1.9-.2h.2c1.5-.3 3-.8 3.5-2.9.2-.7 0-1 0-1.1-.2-.3-.9-.4-1.5-.5-1.1-.2-2.9-.5-3.1-2.3-.2-2.7 2.6-3.4 4.6-4 .2-.1.5-.1.7-.2 1.4-.4 2.5-1.2 3-2.3.5-1.1.6-2.4 0-3.8-.1-.5-.4-.5-.5-.5zM247.6 204.3c-.1-.1-.2-.2-.2-.4-.2-.6-2.2-1.4-4.2-.9-.7.2-1.3.5-1.8.8 0 .5 0 1.2.2 2s.5 1.4.8 1.9c.6.1 1.3 0 1.9-.2 1.4-.4 2.6-1.3 3-2.1.2-.3.2-.6.2-.7.1-.2.1-.3.1-.4zM236 198.5h0c.1 0 0 0 0 0zM227.1 199.5c.7-.4 1.2-.9 1.6-1.3-.1-.6-.3-1.2-.7-1.8-1-1.8-3-2.6-3.6-2.3-.1.1-.3.1-.4.1l-.3.3c-.1.1-.3.3-.4.7-.2.8-.1 2.3.6 3.6.3.6.7 1.1 1.2 1.5.6-.2 1.3-.4 2-.8zM231.8 222.8h-2.2c-1.7 0-2.7-.6-2.9-1.8-.4-2.7 1.6-4.1 3.5-4.9 1.5-.8 2.5-2.1 2.4-3.6 0-1.3-.8-2.5-2.2-3.3-1.9-1-3.8-.9-4.9.2-.7.7-1 1.7-.9 3 0 2.9-1.2 4.5-3.3 4.8h-.2c-1.5 0-2.1-1.6-2.7-3-.4-1.1-.9-2.4-1.6-2.4-.1 0-.3 0-.5.1-1 .4-1.5.9-1.8 1.5-.3.9-.1 2.2.7 3.7l.2.4c.9 1.5 1.8 3.3 1.4 4.7-.2.6-.6 1.1-1.2 1.5-.3.2-.7.2-1 .2-1.1 0-1.9-.8-2.6-1.5-.4-.4-1-1-1.3-1-.1 0-.3.1-.5.4-1.1 1.1-.8 2.5-.2 3.8l.3.9c.6 1.6 1.2 3.2-.3 4.6-.4.3-.8.5-1.2.5-.6 0-1.2-.3-1.6-.5-.2-.1-.6-.3-.7-.3 0 0 0 .1-.1.1-.2.4-.5 1.6 1.3 4.8.9-.9 2.1-2 3.7-3.4 4.4-3.9 9.8-10 15.9-18.3.7-.9.7-.9.9-.9h.1c.1 0 .2.2.2.3.1.8-8.4 13.8-15.8 20.4-1.5 1.4-2.7 2.5-3.8 3.3 1.8 1.5 3.3 2.1 4.3 1.7.2-.1.3-.2.3-.2 0-.1-.2-.6-.3-.9-.3-.7-.8-2 .2-2.9.6-.6 1.3-.9 2.1-.9s1.5.3 2.4.6c.2.1.5.2.8.3l.2.1c.5.2 1.3.4 2 .4.9 0 1.7-.4 2.4-1.1.3-.4.5-.7.5-.9 0-.3-.6-.8-1.1-1.2-.9-.7-2.3-1.8-1.6-3.5.3-.7 1-1.8 2.9-1.8 1 0 2 .3 3 .5.3.1.6.2.9.2 3.1.8 5.1-.7 5.5-3.8 0-.4 0-.7-.1-.8-.1.1-.4-.1-1.5-.1zM31.7 153c.5-.3 1.1-.7 1.7-1.2.6-.6.9-1.2 1.1-1.7-.3-.6-.7-1.1-1.2-1.6-1.5-1.4-3.7-1.7-4.1-1.2-.1.1-.2.2-.3.2 0 .1-.1.2-.2.4-.1.1-.2.3-.2.7 0 .9.5 2.3 1.6 3.3.5.5 1.1.8 1.6 1.1zM232.3 102.4c.5.1.9.2 1.4.2 1.3 0 2.2-.5 2.7-1.5-.5.1-1 .2-1.3.2-.7 0-1.5-.1-2.3-.4-1.3-.4-2.4-1.1-3.1-1.9-.1.8.2 1.4.4 1.8.5.8 1.2 1.3 2.2 1.6zM31.5 154.8c.4.3.9.4 1.4.4 1 0 2-.5 2.8-1.3.8-.8 1.2-1.8 1.2-2.7 0-.6-.2-1.1-.5-1.5-.2 1-.9 2.2-1.8 3.2-1 .9-2.2 1.6-3.1 1.9zM142.3 43.8c1.5 0 2.8-1.2 2.8-2.8 0-1.5-1.2-2.8-2.8-2.8-1.5 0-2.8 1.2-2.8 2.8 0 1.6 1.2 2.8 2.8 2.8zM38.7 188.4c.3.1.6.1.9.2 1.5.3 3.1.5 3.7 2.4.4 1.2-.6 2.1-1.2 2.6-.2.2-.6.5-.6.6 0 0 0 .1.2.3.4.6 1.3.9 2.5.9.8 0 1.6-.1 2.2-.3-.5-1.2-1.1-2.7-1.8-4.7-3.4-9.9-4.2-25-3.9-25.5l.3-.2c.4 0 .4 0 .7 2.4.6 4.5 2.1 15 4.8 22.6.7 1.9 1.2 3.4 1.6 4.6 2.8-1.7 3.3-2.9 3.3-3.5v-.1c-.2 0-.6-.1-.8-.1-.8 0-2.1 0-2.6-1.3-.7-2 .7-3.1 2-4.2l.7-.6c1.2-1 2.2-2 1.8-3.4-.2-.6-.4-.6-.6-.6-.4 0-.9.1-1.4.3-.6.2-1.2.3-1.8.3-1.1 0-1.7-.5-2-.9-.4-.6-.6-1.2-.4-1.9.3-1.5 2-2.5 3.5-3.5l.5-.3c1.4-.9 2.2-1.8 2.4-2.7.1-.7-.2-1.5-.9-2.3-.4-.5-.6-.5-.6-.5-.6 0-1.6.8-2.3 1.4-1 .8-1.9 1.5-2.9 1.5-.4 0-.8-.1-1.1-.4-2.7-1.8-1-4.8-.4-5.8.8-1.3.9-2.6.3-3.7-.6-1.2-2.1-1.9-3.9-2h-.2c-1.6 0-2.8.7-3.4 1.8-.7 1.2-.4 2.8.6 4.3.6.8 2.4 3.4.5 6-.4.5-1 .8-1.6.8-.9 0-1.8-.6-2.8-1.2-.8-.5-1.7-1.1-2.3-1.1-.1 0-.4 0-.7.7-.5 1.4-.5 2.7.1 3.7.5 1.1 1.6 1.9 3 2.3.2.1.5.1.7.2 2 .6 4.8 1.3 4.6 4-.2 1.9-2 2.2-3.1 2.3-.6.1-1.3.2-1.5.5 0 .1-.2.3 0 1.1.5 2.1 2 2.6 3.5 2.9l.4.1zM198.8 80.2c3.7 0 4.6 1.9 4.7 3.5.1 1.7-1.7 2.3-3.1 2.8-.9.3-2.1.7-2.4 1.3 0 .1-.1.3.1.7.6 1.9 1.7 2.1 2.4 2.1.8 0 1.7-.3 2.7-.7l.4-.2c1.2-.6 2.6-1.3 3.9-1.3 1 0 1.9.5 2.3 1.4.7 1.6-.6 2.8-1.4 3.6-.4.4-1 1-1 1.3 0 .1.1.3.3.5.5.5 1 .8 1.7.8s1.5-.3 2.1-.4l1-.3c.9-.3 1.6-.6 2.4-.6.9 0 1.6.4 2.2 1.1.8 1 .1 2.1-.3 2.8-.1.2-.3.5-.4.7 0 0 .1 0 .1.1.2.1.5.2.9.2 1.2 0 2.6-.6 3.6-1.1-.8-1-1.9-2.2-3.3-3.9-5.1-6.3-13.3-13.4-16.9-16.3l-.1-.1c-1.4-1-1.4-1-1.4-1.2v-.2l.2-.2h.2c.2 0 .2 0 1.6 1.1 3.1 2.2 12.6 8.9 18.1 15.6 1.4 1.8 2.5 3.1 3.3 4.2 2.4-2.5 2.3-3.8 2.1-4.4-.1-.3-.2-.3-.2-.3-.2 0-.6.1-.9.2-.4.1-.9.3-1.4.3-.7 0-1.2-.4-1.5-.7-1.2-1.6-.7-3.1-.1-4.5.1-.2.2-.5.3-.8l.1-.2c.5-1.4 1-3-.6-4.5-.5-.5-.8-.5-.9-.5-.3 0-.8.6-1.2 1-.6.7-1.4 1.7-2.6 1.7-.3 0-.6-.1-1-.2-2.5-1-1.6-4-1-5.9l.3-.9c.4-1.4.3-2.7-.2-3.7-.6-1-1.8-1.7-3.3-2.1h-.4c-.3 0-.4.1-.4.1-.4.4-.4 1.7-.4 2.6 0 1.6 0 3.8-1.9 3.9h-.4c-2.4 0-3.5-1.8-4.3-3.6-.7-1.7-2-2.7-3.5-2.7-1.3 0-2.5.8-3.3 2.2-.9 1.5-1 3.1-.4 4.2.5.9 1.6 1.5 3.2 1.5zM49.3 99.8h.2c.6 0 1.2-.1 1.8-.3.8-.2 1.4-.6 1.8-.9 0-.6-.1-1.3-.3-1.9-.6-2-2.4-3.3-3-3.1-.1 0-.3.1-.4 0-.1.1-.2.2-.3.2-.1 0-.3.2-.5.6-.4.8-.6 2.3-.2 3.7.2.6.5 1.2.9 1.7zM86.5 205.9c2.2 0 4-1.5 4-4.5s-1.5-4.6-3.9-4.6c-2.1 0-3.9 1.6-3.9 4.5 0 2.5 1.1 4.6 3.8 4.6zM156.3 205.9c2.2 0 4-1.5 4-4.5s-1.5-4.6-3.9-4.6c-2.1 0-3.9 1.6-3.9 4.5 0 2.5 1.1 4.6 3.8 4.6zM37.7 134.4l.1.1c.2.2.5.4.7.6 1.2 1 2.5 2 2.1 4-.2 1.3-1.5 1.5-2.3 1.7-.3.1-.8.1-.9.3v.4c.1.6.7 1.8 3.8 2.8.2-1.3.4-3 .9-5.2 1.7-9.6 8.4-24.1 9.3-24.1.1 0 .2 0 .2.1.3.2.3.2-.7 2.6-1.6 4.2-5.5 14-6.9 21.8-.4 2.2-.7 3.9-1 5.1 3.3-.1 4.3-.9 4.6-1.4 0 0 0-.1.1-.1-.1-.1-.5-.3-.7-.4-.7-.4-1.8-1.1-1.6-2.4.4-2 2.1-2.4 3.7-2.7l.9-.2c1.5-.3 2.9-.6 3.2-2.1.2-.7.2-.8-1.6-1.3-1.1-.3-2.8-.7-3-2.4 0-.7.2-1.3.6-1.8 1-1.1 3-1.2 4.8-1.3h.4c1.6-.1 2.8-.5 3.4-1.3.4-.6.6-1.4.4-2.4-.1-.6-.2-.9-1.2-.9-.6 0-1.2.1-1.9.2s-1.3.2-1.9.2c-1.3 0-1.9-.6-2.1-1.1-.5-1.2-.9-3.5 2.4-5.3 1.3-.8 2.1-1.8 2.1-3 0-1.3-.9-2.7-2.4-3.6-1.7-1-3.6-.9-4.7.3-.8.8-1.1 2.1-1 3.5.1 1.5.4 4.4-2.4 5.5-.2.1-.5.2-.7.2-1.3 0-2.1-1.4-2.8-2.7-.4-.8-1.2-2.1-1.7-2.1-.1 0-.3 0-.7.3-1.2 1-1.8 2.1-1.9 3.2-.1 1.2.5 2.4 1.6 3.4l.6.6c1.5 1.4 3.7 3.5 1.9 5.7-.4.6-1.1.9-1.9.9-.7 0-1.3-.2-2-.5-.5-.2-1-.4-1.3-.4-.1 0-.4 0-.7 1-.1 2.1 1 3.2 2.2 4.2zM50.9 102.7c.5 0 .9-.1 1.4-.2 1.1-.3 1.9-1 2.4-1.8.3-.5.3-1 .3-1.5-.7.8-1.8 1.5-3.1 1.9-.8.2-1.5.4-2.3.4-.3 0-.8 0-1.3-.2.3.8 1.3 1.4 2.6 1.4zM87.3 234.9c.8 0 1.5-.1 2-.3.2-.6.4-1.2.4-1.9 0-1.5-.6-2.8-1.2-3.4-.3-.3-.5-.4-.6-.4-.2 0-.3 0-.4-.1-.1.1-.3.1-.4.1-.6 0-1.9 1.8-2 3.8 0 .7.1 1.3.3 1.9.4.2 1.1.3 1.9.3zM138.8 73.5l3.5 1.9 3.4-1.9-3.4-2zM43.1 203.8c-.5-.4-1.1-.6-1.8-.8-2-.5-4 .3-4.2 1 0 .2-.1.3-.2.4v.4c0 .1 0 .4.2.7.5.8 1.6 1.7 3 2.1.7.2 1.3.2 1.9.2.3-.5.6-1.1.8-1.9.3-.9.4-1.6.3-2.1zM87.3 238c1.6 0 3.2-.8 3.5-2.4-.8.5-2.1.8-3.4.8-1.4 0-2.7-.4-3.6-.9.1.8.5 1.3.9 1.6.7.6 1.6.9 2.6.9zM177.3 80.3c-.2-.6-.5-1.4-.8-2-.7.1-2 .3-3.3.5.8 1 1.7 2 2.1 2.5.7-.3 1.4-.7 2-1zM77.2 246.2c-.6 0-1.3 0-1.9.2-2 .5-3.3 2.3-3.2 2.9v.4c.1.1.2.2.2.4 0 .1.2.3.5.5.8.4 2.2.7 3.6.3.7-.2 1.2-.5 1.8-.8 0-.5 0-1.2-.2-2s-.5-1.4-.8-1.9zM77.7 244.5c.8.7 1.5 2 1.8 3.2.3 1.3.4 2.7.1 3.6.5-.2.9-.6 1.2-1 .5-.8.6-1.9.3-3-.6-1.8-1.9-3-3.4-2.8zM44.4 202.5c.3 1 .3 2.3 0 3.6-.3 1.2-.9 2.5-1.7 3.2h.3c1.3 0 2.5-1.1 2.9-2.8.2-1 .2-1.9-.2-2.7-.1-.4-.5-1-1.3-1.3zM125.9 73.1l-3.3.7c-.9.2-1.5 1.1-1.3 2 .2.9 1.1 1.5 2 1.3l3.3-.7c.9-.2 1.5-1.1 1.3-2-.2-.9-1.1-1.5-2-1.3zM71.4 237.8c-.1.3-.3.7-.3.9 0 0 .1.1.3.2.2.1.4.1.7.1 1 0 2.2-.6 3.6-1.8-1.1-.9-2.3-2-3.8-3.3-7.4-6.6-15.9-19.6-15.8-20.4 0-.1.1-.2.2-.3h.1c.2 0 .2 0 .9.9 6.2 8.2 11.5 14.4 15.9 18.3 1.6 1.4 2.8 2.5 3.7 3.4 1.8-3.1 1.5-4.4 1.3-4.7l-.1-.2c-.1 0-.5.2-.7.4-.5.3-1 .5-1.6.5-.5 0-.9-.2-1.2-.5-1.5-1.4-.9-3-.3-4.6l.3-.9c.5-1.4.9-2.7-.2-3.8-.3-.3-.5-.4-.5-.4-.3 0-.9.6-1.3 1-.7.7-1.6 1.5-2.6 1.5-.3 0-.7-.1-1-.2-.6-.3-1-.8-1.2-1.5-.4-1.5.5-3.2 1.4-4.7l.2-.4c.8-1.5 1-2.7.7-3.6-.2-.7-.8-1.2-1.8-1.5-.2-.1-.4-.1-.5-.1-.6 0-1.2 1.3-1.6 2.4-.5 1.4-1.2 3-2.7 3h-.2c-2.2-.3-3.3-1.9-3.4-4.7.1-1.3-.3-2.3-.9-3-1.1-1.1-3-1.2-4.9-.2-1.4.7-2.2 1.9-2.3 3.3 0 1.4.9 2.8 2.5 3.6 1.8.8 3.9 2.1 3.5 4.9-.1 1.2-1.1 1.8-2.8 1.8h-2.2c-1.1 0-1.4.2-1.5.3-.1.1-.1.4-.1.8.4 2.6 1.8 4 4 4 .5 0 1-.1 1.5-.2.3-.1.6-.1.9-.2 1-.3 2.1-.5 3-.5 1.9 0 2.6 1.1 2.9 1.8.7 1.7-.7 2.8-1.6 3.5-.5.4-1.1.8-1.1 1.2 0 .2.2.6.5 1 .7.7 1.5 1.1 2.4 1.1.8 0 1.5-.2 2-.4l.2-.1c.3-.1.5-.2.8-.3.9-.3 1.6-.6 2.4-.6.8 0 1.5.3 2.1.9 1 .4.5 1.6.2 2.3zM235 99.8h.2c.4-.5.7-1.1.9-1.7.4-1.4.2-2.9-.2-3.7-.2-.4-.4-.5-.5-.6-.2 0-.3-.1-.4-.2h-.4c-.6-.2-2.4 1.1-3 3.1-.2.6-.3 1.3-.3 1.9.4.3 1 .7 1.8.9.7.2 1.3.3 1.9.3z" class="st0"/>
</svg>
